# This file uses centimeters as units for non-parametric coordinates.

mtllib ramp.mtl
g default
v -0.500000 -0.500000 0.500000
v 0.500000 -0.500000 0.500000
v -0.500000 0.500000 0.500000
v -0.500000 0.500000 -0.500000
v -0.500000 -0.500000 -0.500000
v 0.500000 -0.500000 -0.500000
vt 0.375000 0.000000
vt 0.625000 0.000000
vt 0.375000 0.250000
vt 0.375000 0.500000
vt 0.375000 0.750000
vt 0.625000 0.750000
vt 0.375000 1.000000
vt 0.625000 1.000000
vt 0.125000 0.000000
vt 0.125000 0.250000
vn 0.696311 0.696311 -0.174078
vn 0.000000 0.000000 -1.000000
vn 0.696311 0.696311 -0.174078
vn 0.000000 -1.000000 0.000000
vn 0.000000 -1.000000 0.000000
vn 0.000000 -1.000000 0.000000
vn 0.000000 -1.000000 0.000000
vn -1.000000 0.000000 0.000000
vn -1.000000 0.000000 0.000000
vn -1.000000 0.000000 0.000000
vn -1.000000 0.000000 0.000000
vn 0.696311 0.696311 0.174078
vn 0.696311 0.696311 0.174078
vn 0.000000 0.000000 1.000000
s 1
g pCube1
usemtl initialShadingGroup
f 6/6/1 5/5/2 4/4/3
s off
f 5/5/4 6/6/5 2/8/6 1/7/7
f 5/9/8 1/1/9 3/3/10 4/10/11
s 1
f 2/2/12 3/3/13 1/1/14
f 6/6/1 4/4/3 3/3/13 2/2/12
